<?xml version="1.0" encoding="utf-8"?>
<!-- Generator: Adobe Illustrator 22.0.1, SVG Export Plug-In . SVG Version: 6.00 Build 0)  -->
<svg version="1.1" id="Layer_1" xmlns="http://www.w3.org/2000/svg" xmlns:xlink="http://www.w3.org/1999/xlink" x="0px" y="0px"
	 viewBox="0 0 120 120" style="enable-background:new 0 0 120 120;" xml:space="preserve">
<style type="text/css">
	.st0{fill:#182A61;}
	.st1{fill:#FFFFFF;}
</style>
<g>
	
		<image style="overflow:visible;opacity:0.3;enable-background:new    ;" width="500" height="500" xlink:href="E935022C68E4CF0C.png"  transform="matrix(0.2381 0 0 0.2381 0.48 1.56)">
	</image>
	<circle class="st0" cx="59.9" cy="60" r="53.5"/>
	<g id="Layer_1-2">
		<path class="st1" d="M87.3,70.6c-0.4,0.8-1.2,1.3-2.1,1.3h-4.9c-0.9,0-1.7-0.5-2.1-1.3l-6.7-13.5c-0.7-1.3-2-1.7-3.2-1.7H56.2
			c-1.1,0-1.8,0.7-1.8,1.8c0,1.1,0.7,1.8,1.8,1.8h8.3c3.5,0,6.5,2.1,6.5,6.5c0,4.4-3,6.5-6.5,6.5H53.9c-1,0-1.8-0.6-1.8-1.8v-2.3
			c0-0.3,0.2-0.6,0.5-0.6c0,0,0.1,0,0.1,0h9.5c1,0,1.8-0.6,1.8-1.8s-0.8-1.8-1.8-1.8h-8.9c-1.5,0-2.9-0.4-3.8-1
			c-0.5,5.7-4.6,9.3-10.6,9.3H25.5c-0.3,0-0.6-0.2-0.6-0.5c0,0,0-0.1,0-0.1V59.5c0-0.3,0.2-0.6,0.5-0.6c0,0,0,0,0.1,0h4.7
			c1.3,0,1.8,0.8,1.8,1.8v5.9l0,0c0,0.3,0.2,0.6,0.5,0.6c0,0,0.1,0,0.1,0h4.1c3.2,0,5.9-1.9,5.9-5.9s-2.7-5.9-5.9-5.9H25.4
			c-0.3,0-0.6-0.2-0.6-0.5c0,0,0-0.1,0-0.1v-2.3c0-1.3,0.9-1.8,1.8-1.8h12.2c3.4,0,6.6,1.3,8.4,3.6c1-2.4,3.2-3.6,6-3.6h17.5
			c2.2,0,4.6,0.7,5.9,3.2l5.7,11.9c0.1,0.2,0.3,0.2,0.5,0.1c0,0,0.1-0.1,0.1-0.1c0,0,7-14.7,7.1-14.8c0.1-0.2,0.3-0.3,0.5-0.3h5.4
			c0.3,0,0.6,0.2,0.6,0.5c0,0,0,0.1,0,0.1c0,0.1,0,0.2-0.1,0.3L87.3,70.6z"/>
	</g>
</g>
</svg>
