<?xml version="1.0" encoding="utf-8"?>
<!-- Generator: Adobe Illustrator 22.0.1, SVG Export Plug-In . SVG Version: 6.00 Build 0)  -->
<svg version="1.1" id="Layer_1" xmlns="http://www.w3.org/2000/svg" xmlns:xlink="http://www.w3.org/1999/xlink" x="0px" y="0px"
	 viewBox="0 0 120 120" style="enable-background:new 0 0 120 120;" xml:space="preserve">
<style type="text/css">
	.st0{fill:#FFFFFF;}
	.st1{fill:#FF6600;}
</style>
<g>
	
		<image style="overflow:visible;opacity:0.3;enable-background:new    ;" width="500" height="500" xlink:href="A8B158149E6DD104.png"  transform="matrix(0.2386 0 0 0.2386 0.32 1.28)">
	</image>
	<g>
		<circle class="st0" cx="60" cy="60" r="53.5"/>
	</g>
</g>
<g id="Page-1_17_">
	<g id="TNT:-Grey-Copy_4_" transform="translate(0.000000, -1.000000)">
		<g id="Group-3_8_" transform="translate(0.000000, 0.309517)">
			<path id="Fill-1_12_" class="st1" d="M47.7,55.2c2.3-4.3,6.9-7.3,12.4-7.1c5.5-0.2,10.1,2.8,12.4,7.1c2.3-4.3,6.9-7.3,12.2-7.3
				c8,0.2,14,6.4,14,14s-6.1,13.8-13.8,13.8C79.4,76,74.8,73,72.3,68.5c-2,4.5-6.9,7.3-12.2,7.3C54.6,76,50,73,47.7,68.7
				c-2.3,4.3-7.1,7.1-12.4,7.1c-7.8,0-14-6.4-14-14S27.8,48,35.5,48C40.8,47.9,45.4,51,47.7,55.2 M84.7,51.2
				c-5.7,0-10.6,4.9-10.6,10.6c0,6.1,4.9,11,10.8,10.8c5.9,0.2,10.8-4.6,10.6-10.6C95.7,56.1,90.8,51.2,84.7,51.2 M60.1,51.3
				c-5.9-0.2-10.8,4.6-10.8,10.4c0,6.1,4.9,11,10.8,10.8c5.9,0.2,10.8-4.6,10.6-10.6C70.9,56.1,66,51.2,60.1,51.3 M35.5,51.2
				c-6.1,0-11,4.9-11,10.6c0,6.1,4.9,11,10.8,10.8c6.1,0,10.8-4.6,10.8-10.8C46.1,56.1,41.1,51.2,35.5,51.2"/>
		</g>
		<polygon id="Fill-4_8_" class="st1" points="78.7,55.9 91.3,55.9 91.1,59.4 87.8,59.4 87,59.4 87,68.8 82.6,68.6 82.6,59.2 
			82.1,59.4 78.7,59.2 		"/>
		<polygon id="Fill-6_13_" class="st1" points="28.9,55.9 41.6,55.9 41.6,59.2 38.1,59.4 37.5,59.2 37.5,68.6 33.3,68.8 33.3,59.4 
			32.4,59.4 28.9,59.2 		"/>
		<polygon id="Fill-8_13_" class="st1" points="57.8,68.6 57.8,62.1 57.8,62.5 62.4,68.6 66.4,68.6 66.4,55.9 62.4,55.9 62.4,62.5 
			62.4,62.1 57.6,55.7 53.7,55.9 53.7,68.6 		"/>
	</g>
</g>
</svg>
